# AST/ASF file generated using VICON BodyLanguage
# -----------------------------------------------
:version 1.10
:name VICON
:units
  mass 1.0
  length 0.45
  angle deg
:documentation
   .ast/.asf automatically generated from VICON data using
   VICON BodyBuilder and BodyLanguage model FoxedUp or BRILLIANT.MOD
:root
   order TX TY TZ RX RY RZ
   axis XYZ
   position 0 0 0  
   orientation 0 -0 0 
:bonedata
  begin
     id 1 
     name lhipjoint
     direction 0.500677 -0.737119 0.453848 
     length 2.34727 
     axis 0 -0 0  XYZ
  end
  begin
     id 2 
     name lfemur
     direction 0.34202 -0.939693 0  
     length 7.53653  
     axis 0 -0 20  XYZ
    dof rx ry rz
    limits (-160.0 20.0)
           (-70.0 70.0)
           (-60.0 70.0)
  end
  begin
     id 3 
     name ltibia
     direction 0.34202 -0.939693 0   
     length 6.85572   
     axis 0 -0 20   XYZ
    dof rx
    limits (-10.0 170.0)
  end
  begin
     id 4 
     name lfoot
     direction 0.155313 -0.426718 0.890949   
     length 2.18324   
     axis -90 -1.13533e-015 20   XYZ
    dof rx rz
    limits (-45.0 90.0)
           (-70.0 20.0)
  end
  begin
     id 5 
     name ltoes
     direction 1.53474e-011 -4.21647e-011 1   
     length 1.06748   
     axis -90 -1.13533e-015 20   XYZ
    dof rx
    limits (-90.0 20.0)
  end
  begin
     id 6 
     name rhipjoint
     direction -0.632471 -0.659587 0.406111   
     length 2.62319  
     axis 0 -0 0  XYZ 
  end
  begin
     id 7 
     name rfemur
     direction -0.34202 -0.939693 0   
     length 7.21735   
     axis 0 -0 -20   XYZ
    dof rx ry rz
    limits (-160.0 20.0)
           (-70.0 70.0)
           (-70.0 60.0)
  end
  begin
     id 8 
     name rtibia
     direction -0.34202 -0.939693 0   
     length 7.02558   
     axis 0 -0 -20   XYZ
    dof rx
    limits (-10.0 170.0)
 end
 begin
     id 9 
     name rfoot
     direction -0.16057 -0.441164 0.882945   
     length 2.10014  
     axis -90 1.13533e-015 -20   XYZ
    dof rx rz
    limits (-45.0 90.0)
           (-20.0 70.0)
  end
  begin
     id 10 
     name rtoes
     direction -1.53553e-011 -4.2192e-011 1   
     length 1.02554   
     axis -90 1.13533e-015 -20   XYZ
    dof rx
    limits (-90.0 20.0)
  end
  begin
     id 11 
     name lowerback
     direction 0.0401429 0.998861 -0.0258085   
     length 1.80848   
     axis 0 -0 0   XYZ
    dof rx ry rz
    limits (-20.0 45.0)
           (-30.0 30.0)
           (-30.0 30.0)
  end
  begin
     id 12 
     name upperback
     direction -0.0130978 0.999914 -0.000352645   
     length 1.8116   
     axis 0 -0 0   XYZ
    dof rx ry rz
    limits (-20.0 45.0)
           (-30.0 30.0)
           (-30.0 30.0)
  end
  begin
     id 13 
     name thorax
     direction -0.0300198 0.999453 0.0138573   
     length 1.81778   
     axis 0 -0 0   XYZ
    dof rx ry rz
    limits (-20.0 45.0)
           (-30.0 30.0)
           (-30.0 30.0)
  end
  begin
     id 14 
     name lowerneck
     direction -0.0401726 0.999191 -0.00173647   
     length 2.10594   
     axis 0 -0 0   XYZ
    dof rx ry rz
    limits (-20.0 45.0)
           (-30.0 30.0)
           (-30.0 30.0)
  end
  begin
     id 15 
     name upperneck
     direction 0.0119835 0.998501 0.0534085   
     length 2.07325   
     axis 0 -0 0   XYZ
    dof rx ry rz
    limits (-20.0 45.0)
           (-30.0 30.0)
           (-30.0 30.0)
  end
  begin
     id 16
     name head
     direction 0.00628309 0.999826 0.0175921  
     length 2.15096  
     axis 0 -0 0   XYZ
    dof rx ry rz
    limits (-20.0 45.0)
           (-30.0 30.0)
           (-30.0 30.0)
  end
  begin
     id 17 
     name lclavicle
     direction 0.895501 0.429681 -0.115981  
     length 4.18092  
     axis 0 -0 0   XYZ
    dof ry rz
    limits (-20.0 10.0)
           (0.0 20.0)
  end
  begin
     id 18 
     name lhumerus
     direction 1 -4.48961e-011 -3.38433e-028   
     length 5.77237   
     axis 180 -30 -90   XYZ
    dof rx ry rz
    limits (-60.0 90.0)
           (-90.0 90.0)
           (-90.0 90.0)
  end
  begin
     id 19
     name lradius
     direction 1 -4.4901e-011 1.11983e-026   
     length 2.91878   
     axis 180 -30 -90   XYZ
    dof rx
    limits (-10.0 170.0)
  end
  begin
     id 20
     name lwrist
     direction 1 -4.48934e-011 1.88176e-026   
     length 1.45939   
     axis -1.23311e-014 90 90   XYZ
    dof ry
    limits (-180.0 0.0)
 end
  begin
     id 21 
     name lhand
     direction 1 -4.4895e-011 3.76352e-026   
     length 1.06566   
     axis -2.40147e-014 90 90   XYZ
    dof rx rz
    limits (-90.0 90.0)
           (-45.0 45.0)
  end
  begin
     id 22 
     name lfingers
     direction 1 -4.49005e-011 7.52705e-026   
     length 0.859162   
     axis -4.80295e-014 90 90   XYZ
    dof rx
    limits (0.0 90.0)
  end
  begin
     id 23
     name lthumb
     direction 0.707107 -6.34885e-011 0.707107   
     length 1.23359   
     axis -90 45 -9.86935e-015   XYZ
    dof rx rz
    limits (-45.0 45.0)
           (-45.0 45.0)
  end
  begin
     id 24 
     name rclavicle
     direction -0.91006 0.40451 -0.0903492   
     length 4.23293  
     axis 0 -0 0   XYZ 
    dof ry rz
    limits (-10.0 20.0)
           (-20.0 0.0)
  end
  begin
     id 25 
     name rhumerus
     direction -1 -4.4897e-011 1.7415e-027  
     length 5.49854   
     axis 180 30 90   XYZ
    dof rx ry rz
    limits (-90.0 60.0)
           (-90.0 90.0)
           (-90.0 90.0)
  end
  begin
     id 26 
     name rradius
     direction -1 -4.48963e-011 1.21259e-026   
     length 3.1186   
     axis 180 30 90   XYZ
    dof rx
    limits (-10.0 170.0)
  end
  begin
     id 27 
     name rwrist
     direction -1 -4.48967e-011 1.88176e-026   
     length 1.5593   
     axis -1.23311e-014 -90 -90   XYZ
    dof ry
    limits (-180.0 0.0)
  end
  begin
     id 28
     name rhand
     direction -1 -4.4895e-011 3.76352e-026   
     length 0.71207   
     axis -2.40147e-014 -90 -90   XYZ
    dof rx rz
    limits (-90.0 90.0)
           (-45.0 45.0)
  end
  begin
     id 29
     name rfingers
     direction -1 -4.49005e-011 7.52705e-026   
     length 0.574089   
     axis -4.80295e-014 -90 -90   XYZ
    dof rx
    limits (0.0 90.0)
  end
  begin
     id 30
     name rthumb
     direction -0.707107 -6.34982e-011 0.707107   
     length 0.824281   
     axis -90 -45 9.86935e-015   XYZ
    dof rx rz
    limits (-45.0 45.0)
           (-45.0 45.0)
  end
:hierarchy
  begin
    root lhipjoint rhipjoint lowerback
    lhipjoint lfemur
    lfemur ltibia
    ltibia lfoot
    lfoot ltoes
    rhipjoint rfemur
    rfemur rtibia
    rtibia rfoot
    rfoot rtoes
    lowerback upperback
    upperback thorax
    thorax lowerneck lclavicle rclavicle
    lowerneck upperneck
    upperneck head
    lclavicle lhumerus
    lhumerus lradius
    lradius lwrist
    lwrist lhand lthumb
    lhand lfingers
    rclavicle rhumerus
    rhumerus rradius
    rradius rwrist
    rwrist rhand rthumb
    rhand rfingers
  end

#!OML:ASF C:\ViconDB\ViconDB\414\Spring2016\042216\male.ASF
:FULLY-SPECIFIED
:DEGREES
420
root 27.3429 17.7452 10.407 -23.4832 86.9044 -23.0465
lowerback 0.751218 -2.45617 4.10994
upperback -0.50813 -3.22711 -0.251478
thorax -1.18451 -1.64458 -2.49386
lowerneck -2.65574 7.88395 -1.43404
upperneck 3.79352 10.6706 -1.52764
head 1.63009 5.28071 -0.00398684
rclavicle -1.84381e-015 -2.13694e-015
rhumerus -33.8889 -7.61412 -87.9887
rradius 25.6545
rwrist 30.2181
rhand 11.8958 -18.5884
rfingers 7.12502
rthumb 36.9221 -44.6729
lclavicle -1.84381e-015 -2.13694e-015
lhumerus -31.1355 15.1906 85.2253
lradius 33.6329
lwrist -14.0036
lhand -6.0713 12.0577
lfingers 7.12502
lthumb 19.7638 41.0729
rfemur -20.4543 -2.1219 20.8521
rtibia 41.7398
rfoot -12.6225 -11.9351
rtoes -25.6659
lfemur -4.26171 0.400841 -22.4156
ltibia 19.3283
lfoot -20.769 10.4473
ltoes -12.2422
421
root 27.5084 17.7317 10.4034 -24.7947 87.0714 -24.4825
lowerback 0.61757 -2.49485 4.16577
upperback -0.489357 -3.28535 -0.305495
thorax -1.10102 -1.67254 -2.58575
lowerneck -2.6452 7.72574 -1.31886
upperneck 3.67309 10.441 -1.35273
head 1.5853 5.17186 0.0219959
rclavicle -3.47367e-014 4.49129e-015
rhumerus -34.316 -7.93188 -87.8105
rradius 26.0832
rwrist 29.7656
rhand 12.2013 -18.7541
rfingers 7.12502
rthumb 37.2111 -44.7637
lclavicle -3.47367e-014 4.49129e-015
lhumerus -30.5391 14.0252 85.6718
lradius 34.1522
lwrist -13.206
lhand -6.04274 12.055
lfingers 7.12502
lthumb 19.7913 41.0673
rfemur -21.2315 -1.84427 20.7967
rtibia 39.4703
rfoot -12.7926 -12.382
rtoes -24.8696
lfemur -3.57456 0.314099 -22.5213
ltibia 19.0301
lfoot -21.0978 10.7855
ltoes -12.8922
422
root 27.6771 17.7305 10.4054 -24.4183 87.3099 -24.3194
lowerback 0.421155 -2.51269 4.12661
upperback -0.546744 -3.31789 -0.358646
thorax -1.05332 -1.68884 -2.62544
lowerneck -2.6753 7.53209 -1.58645
upperneck 3.65786 10.172 -0.898099
head 1.54563 5.04262 0.195268
rclavicle 1.74825e-014 -1.03508e-015
rhumerus -34.8445 -8.51349 -87.4488
rradius 26.4066
rwrist 29.5204
rhand 12.3535 -19.0954
rfingers 7.12502
rthumb 37.355 -45.0672
lclavicle 1.74825e-014 -1.03508e-015
lhumerus -30.0144 13.788 85.8569
lradius 34.4389
lwrist -13.5534
lhand -5.86459 11.7826
lfingers 7.12502
lthumb 19.9625 40.7772
rfemur -22.0394 -1.42932 20.6414
rtibia 37.028
rfoot -12.8627 -13.0617
rtoes -24.9595
lfemur -2.93585 0.263115 -22.6831
ltibia 18.5165
lfoot -21.3975 10.7619
ltoes -12.7541
423
root 27.8465 17.7211 10.406 -24.7113 87.6074 -24.7598
lowerback 0.282757 -2.52118 4.15652
upperback -0.599942 -3.33488 -0.430884
thorax -1.03784 -1.69852 -2.72101
lowerneck -2.50957 7.30576 -1.61144
upperneck 3.49972 9.85599 -0.727983
head 1.4569 4.89006 0.232394
rclavicle 2.21072e-014 -3.50979e-015
rhumerus -35.2856 -9.13137 -86.9289
rradius 26.3484
rwrist 30.7891
rhand 12.7362 -18.415
rfingers 7.12502
rthumb 37.7167 -44.2907
lclavicle 2.21072e-014 -3.50979e-015
lhumerus -29.5917 11.9242 86.5898
lradius 35.147
lwrist -12.016
lhand -6.26761 12.1994
lfingers 7.12502
lthumb 19.5751 41.234
rfemur -22.6041 -1.01882 20.4566
rtibia 34.3745
rfoot -12.8092 -13.7111
rtoes -24.3206
lfemur -2.20807 0.263301 -22.8256
ltibia 17.9638
lfoot -22.0071 10.6204
ltoes -11.9602
424
root 28.0227 17.7172 10.4112 -23.0515 87.7198 -23.1483
lowerback 0.23502 -2.48549 4.20974
upperback -0.659563 -3.2899 -0.620868
thorax -1.08325 -1.67957 -2.94733
lowerneck -2.34844 7.11641 -1.45585
upperneck 3.44563 9.58109 -0.455291
head 1.40646 4.76048 0.276753
rclavicle 4.75515e-014 2.23633e-015
rhumerus -35.8212 -9.41788 -86.9077
rradius 26.4042
rwrist 30.5017
rhand 12.6194 -18.4879
rfingers 7.12502
rthumb 37.6063 -44.3931
lclavicle 4.75515e-014 2.23633e-015
lhumerus -29.3139 11.0127 86.6419
lradius 35.6658
lwrist -11.9511
lhand -5.99883 12.1408
lfingers 7.12502
lthumb 19.8335 41.1488
rfemur -23.0653 -0.416629 20.2282
rtibia 31.6424
rfoot -12.5212 -14.1049
rtoes -23.2773
lfemur -1.27222 0.108472 -22.9761
ltibia 17.3274
lfoot -22.3782 10.8032
ltoes -11.79
425
root 28.1991 17.712 10.4156 -25.9524 87.7615 -26.1973
lowerback 0.0132333 -2.44246 4.44901
upperback -0.698804 -3.24086 -0.677025
thorax -1.01215 -1.65627 -3.14911
lowerneck -2.21305 6.92478 -1.41256
upperneck 3.35569 9.31255 -0.279584
head 1.34911 4.63103 0.310125
rclavicle -3.343e-014 -6.95746e-016
rhumerus -36.3584 -10.2581 -86.5224
rradius 26.5516
rwrist 30.6962
rhand 12.3555 -18.7542
rfingers 7.12502
rthumb 37.3569 -44.7255
lclavicle -3.343e-014 -6.95746e-016
lhumerus -28.9556 9.73803 87.0438
lradius 36.2233
lwrist -10.9469
lhand -6.56791 12.3337
lfingers 7.12502
lthumb 19.2864 41.3974
rfemur -23.6135 0.235707 20.2082
rtibia 28.9039
rfoot -12.0729 -14.3454
rtoes -22.549
lfemur -0.449774 0.0432925 -22.8912
ltibia 16.7025
lfoot -22.4861 10.9014
ltoes -12.6241
426
root 28.3668 17.7142 10.4276 -28.7995 88.172 -29.3352
lowerback -0.300974 -2.50617 4.41498
upperback -0.753583 -3.33989 -0.764194
thorax -0.904417 -1.7045 -3.23151
lowerneck -2.20784 6.72773 -1.49672
upperneck 3.26946 9.0399 0.000550158
head 1.30509 4.49904 0.400741
rclavicle 5.19045e-014 -1.59028e-015
rhumerus -36.6996 -11.1501 -86.0747
rradius 26.4446
rwrist 31.4588
rhand 12.4143 -18.7233
rfingers 7.12502
rthumb 37.4125 -44.68
lclavicle 5.19045e-014 -1.59028e-015
lhumerus -28.5649 8.6269 87.4004
lradius 36.7025
lwrist -10.0132
lhand -7.14276 12.1941
lfingers 7.12502
lthumb 18.7335 41.312
rfemur -24.3491 1.21312 19.8208
rtibia 26.4095
rfoot -11.7758 -14.9674
rtoes -21.7718
lfemur 0.210015 -0.218588 -22.935
ltibia 15.8702
lfoot -22.5981 10.7943
ltoes -12.4022
